<?xml version="1.0" standalone="no"?>
<!DOCTYPE svg PUBLIC "-//W3C//DTD SVG 20010904//EN"
 "http://www.w3.org/TR/2001/REC-SVG-20010904/DTD/svg10.dtd">
<svg version="1.0" xmlns="http://www.w3.org/2000/svg"
 width="1000.000000pt" height="1000.000000pt" viewBox="0 0 1000.000000 1000.000000"
 preserveAspectRatio="xMidYMid meet">
<metadata>
Created by potrace 1.14, written by Peter Selinger 2001-2017
</metadata>
<g transform="translate(0.000000,1000.000000) scale(0.100000,-0.100000)"
fill="#000000" stroke="none">
<path d="M1582 8417 l-1582 -1582 0 -3418 0 -3417 3418 0 3417 0 1583 1583
1582 1582 0 3418 0 3417 -3418 0 -3417 0 -1583 -1583z m2132 -1707 c335 -22
572 -100 781 -258 257 -195 376 -464 362 -822 -23 -581 -339 -1085 -838 -1336
-58 -30 -111 -54 -117 -54 -31 0 -32 4 223 -780 35 -107 107 -330 160 -495 53
-165 107 -331 121 -369 13 -38 24 -73 24 -78 0 -4 -199 -7 -442 -6 l-442 3
-73 245 c-40 135 -98 326 -128 425 -139 464 -265 892 -265 903 0 9 -54 12
-210 12 -201 0 -210 -1 -210 -19 0 -11 -34 -226 -75 -478 -106 -657 -175
-1082 -175 -1088 0 -3 -191 -5 -425 -5 -278 0 -425 3 -425 10 0 6 23 153 51
328 28 174 66 416 85 537 19 121 48 303 64 405 16 102 97 610 179 1130 82 520
180 1137 218 1372 l68 428 665 0 c366 0 737 -5 824 -10z m4816 -6 c0 -19 -119
-742 -126 -766 -5 -17 -42 -18 -537 -20 l-532 -3 -8 -45 c-4 -25 -52 -328
-106 -675 -55 -346 -167 -1060 -250 -1585 -83 -525 -156 -988 -162 -1027 l-12
-73 -429 0 -430 0 6 38 c3 20 17 107 30 192 14 85 55 342 91 570 68 433 101
639 135 850 11 69 44 283 74 475 46 294 194 1238 199 1270 1 7 -182 11 -530
13 -293 1 -533 4 -533 7 0 4 114 701 125 763 l6 32 1494 0 c1352 0 1495 -2
1495 -16z"/>
<path d="M2955 5958 c-2 -7 -32 -188 -65 -403 -34 -214 -73 -459 -86 -543 -13
-85 -24 -158 -24 -164 0 -7 100 -9 318 -5 280 4 326 7 395 26 201 53 328 148
409 305 57 110 73 187 73 352 0 139 0 141 -33 205 -60 117 -139 179 -282 218
-68 19 -102 21 -388 21 -241 0 -314 -3 -317 -12z"/>
</g>
</svg>
